<svg width="300" height="340" viewBox="0 0 300 340" fill="none" xmlns="http://www.w3.org/2000/svg"><rect width="300" height="340" rx="16" fill="#F8FAFC"/><path d="M102 72L150 31L198 72V270H102V72Z" fill="#D9A64A"/><path d="M88 82L150 22L212 82H88Z" fill="#8B5E23"/><g fill="#E8B85A"><rect x="116" y="91" width="68" height="30" rx="4"/><rect x="116" y="132" width="68" height="30" rx="4"/><rect x="116" y="173" width="68" height="30" rx="4"/><rect x="116" y="214" width="68" height="30" rx="4"/></g><g fill="#7B4F1B"><rect x="129" y="103" width="42" height="5" rx="2"/><rect x="129" y="144" width="42" height="5" rx="2"/><rect x="129" y="185" width="42" height="5" rx="2"/><rect x="129" y="226" width="42" height="5" rx="2"/></g><ellipse cx="150" cy="286" rx="78" ry="15" fill="#DCE8DC"/></svg>
