<svg width="300" height="340" viewBox="0 0 300 340" fill="none" xmlns="http://www.w3.org/2000/svg"><rect width="300" height="340" rx="16" fill="#F5FBF4"/><path d="M78 82L150 36L222 82V270H78V82Z" fill="#D9A64A"/><path d="M60 90L150 26L240 90H60Z" fill="#8B5E23"/><rect x="96" y="102" width="108" height="30" rx="4" fill="#F0C266"/><rect x="96" y="141" width="108" height="30" rx="4" fill="#E8B85A"/><rect x="96" y="180" width="108" height="30" rx="4" fill="#D49A3A"/><rect x="96" y="219" width="108" height="30" rx="4" fill="#E8B85A"/><g fill="#7B4F1B"><rect x="120" y="114" width="60" height="6" rx="3"/><rect x="120" y="153" width="60" height="6" rx="3"/><rect x="120" y="192" width="60" height="6" rx="3"/><rect x="120" y="231" width="60" height="6" rx="3"/></g><ellipse cx="150" cy="286" rx="92" ry="17" fill="#D6E9D4"/></svg>
