<svg width="960" height="260" viewBox="0 0 960 260" fill="none" xmlns="http://www.w3.org/2000/svg">
  <rect width="960" height="260" rx="20" fill="#ECF7EE"/>
  <circle cx="798" cy="66" r="38" fill="#F8D77A"/>
  <path d="M0 160C120 110 218 114 318 156C431 203 548 194 663 140C780 85 865 92 960 124V260H0V160Z" fill="#D2E7CD"/>
  <path d="M0 190C105 154 220 160 315 194C438 238 555 221 675 168C790 118 879 129 960 158V260H0V190Z" fill="#93BF7F"/>
  <g fill="#D9A64A">
    <rect x="120" y="153" width="62" height="58" rx="4"/><rect x="132" y="168" width="38" height="5" rx="2" fill="#79511D"/>
    <rect x="426" y="134" width="74" height="78" rx="4"/><rect x="441" y="153" width="44" height="6" rx="2" fill="#79511D"/><rect x="441" y="175" width="44" height="6" rx="2" fill="#79511D"/>
    <rect x="690" y="148" width="58" height="64" rx="4"/><rect x="702" y="167" width="34" height="5" rx="2" fill="#79511D"/>
  </g>
</svg>
